<?xml version="1.0" encoding="utf-8"?>
<!-- Generator: Adobe Illustrator 28.1.0, SVG Export Plug-In . SVG Version: 6.00 Build 0)  -->
<svg version="1.1" id="Layer_1" xmlns="http://www.w3.org/2000/svg" xmlns:xlink="http://www.w3.org/1999/xlink" x="0px" y="0px"
	 viewBox="0 0 1200 61" style="enable-background:new 0 0 1200 61;" xml:space="preserve">
<style type="text/css">
	.st0{fill:url(#SVGID_1_);fill-opacity:0.25;}
	.st1{fill:#D9D9D9;filter:url(#Adobe_OpacityMaskFilter);}
	.st2{mask:url(#mask0_6_128_00000158725897503717781810000001842529565639122068_);}
	.st3{fill:url(#SVGID_00000031204532340062440100000016581439713075688078_);fill-opacity:0.5;}
	
		.st4{fill-rule:evenodd;clip-rule:evenodd;fill:url(#SVGID_00000078761915009023416440000008509063569781294766_);fill-opacity:0.8;}
	.st5{fill-rule:evenodd;clip-rule:evenodd;fill:#070711;}
	.st6{fill:url(#SVGID_00000126282116276506537830000011095928823693822348_);fill-opacity:0.25;}
	.st7{fill:#D9D9D9;filter:url(#Adobe_OpacityMaskFilter_00000094618634095520506600000002922565533079163808_);}
	.st8{mask:url(#mask0_6_128_00000018926208396525909520000002102887992019509176_);}
	.st9{fill:url(#SVGID_00000097469428633111565610000009517206363305767073_);fill-opacity:0.5;}
	
		.st10{fill-rule:evenodd;clip-rule:evenodd;fill:url(#SVGID_00000127031744575167966320000010744442846095350422_);fill-opacity:0.8;}
	
		.st11{fill-rule:evenodd;clip-rule:evenodd;fill:url(#SVGID_00000064341634998229402410000000164524005652477629_);fill-opacity:0.8;}
</style>
<g>
	<defs>
		<filter id="Adobe_OpacityMaskFilter" filterUnits="userSpaceOnUse" x="-12" y="-93.3" width="1223" height="515">
			<feColorMatrix  type="matrix" values="1 0 0 0 0  0 1 0 0 0  0 0 1 0 0  0 0 0 1 0"/>
		</filter>
	</defs>
	
		<mask maskUnits="userSpaceOnUse" x="-12" y="-93.3" width="1223" height="515" id="mask0_6_128_00000158725897503717781810000001842529565639122068_">
	</mask>
	<g class="st2">
		<g>
			
				<linearGradient id="SVGID_1_" gradientUnits="userSpaceOnUse" x1="625.2832" y1="-66.62" x2="599.1622" y2="-580.353" gradientTransform="matrix(1 0 0 -1 0 -158.6956)">
				<stop  offset="0" style="stop-color:#20ECEC;stop-opacity:6.000000e-02"/>
				<stop  offset="1" style="stop-color:#1FDCEA"/>
			</linearGradient>
			<path style="fill:url(#SVGID_1_);fill-opacity:0.5;" d="M-12,421.7c0-284.4,230.6-515,515-515h193c284.4,0,515,230.6,515,515l0,0
				H-12L-12,421.7z"/>
		</g>
	</g>
</g>
<g>
	
		<linearGradient id="SVGID_00000086662467280274990720000001774124304813265830_" gradientUnits="userSpaceOnUse" x1="598.9891" y1="-574.1402" x2="598.9891" y2="-635.1402" gradientTransform="matrix(-1 0 0 1 1199 664.1311)">
		<stop  offset="0" style="stop-color:#DD00AC;stop-opacity:0"/>
		<stop  offset="1" style="stop-color:#DD00AC;stop-opacity:0.15"/>
	</linearGradient>
	
		<rect x="0" y="29" style="fill:url(#SVGID_00000086662467280274990720000001774124304813265830_);fill-opacity:0.25;" width="1200" height="61"/>
	<defs>
		
			<filter id="Adobe_OpacityMaskFilter_00000111882298657093485020000007227616624199349914_" filterUnits="userSpaceOnUse" x="-11" y="-442" width="1223" height="515">
			<feColorMatrix  type="matrix" values="1 0 0 0 0  0 1 0 0 0  0 0 1 0 0  0 0 0 1 0"/>
		</filter>
	</defs>
	
		<mask maskUnits="userSpaceOnUse" x="-11" y="-442" width="1223" height="515" id="mask0_6_128_00000018926208396525909520000002102887992019509176_">
		
			<rect x="0" y="29" style="fill:#D9D9D9;filter:url(#Adobe_OpacityMaskFilter_00000111882298657093485020000007227616624199349914_);" width="1200" height="61"/>
	</mask>
	<g class="st8">
		<g>
			
				<linearGradient id="SVGID_00000126306879545282546100000009990157222669089189_" gradientUnits="userSpaceOnUse" x1="624.2723" y1="-592.3903" x2="598.1513" y2="-1106.1233" gradientTransform="matrix(-1 0 0 1 1199 664.1311)">
				<stop  offset="0" style="stop-color:#20ECEC;stop-opacity:6.000000e-02"/>
				<stop  offset="1" style="stop-color:#1FDCEA"/>
			</linearGradient>
			<path style="fill:url(#SVGID_00000126306879545282546100000009990157222669089189_);fill-opacity:0.5;" d="M1212-442
				c0,284.4-230.6,515-515,515H504C219.6,73-11-157.6-11-442l0,0H1212L1212-442z"/>
		</g>
	</g>
	
		<linearGradient id="SVGID_00000005249498573579726160000013455917658420522394_" gradientUnits="userSpaceOnUse" x1="-1.0102" y1="-618.6408" x2="1198.9897" y2="-618.6409" gradientTransform="matrix(-1 0 0 1 1199 664.1311)">
		<stop  offset="0" style="stop-color:#432372;stop-opacity:0"/>
		<stop  offset="0.3385" style="stop-color:#1849D5"/>
		<stop  offset="0.5" style="stop-color:#20EFEC"/>
		<stop  offset="0.6667" style="stop-color:#184AD5"/>
		<stop  offset="1" style="stop-color:#432372;stop-opacity:0"/>
	</linearGradient>
	
		<path style="fill-rule:evenodd;clip-rule:evenodd;fill:url(#SVGID_00000005249498573579726160000013455917658420522394_);fill-opacity:0.8;" d="
		M359.8,50.7c5.5,6.6,13.7,10.3,22.3,10.3h437.5c8.1,0,15.8-3.8,20.7-10.3l0,0c4.9-6.5,12.5-10.3,20.7-10.3h333.9
		c2.9,0,5.2-2.3,5.2-5.2l0,0c0-2.9-2.3-5.2-5.2-5.2H5.2C2.3,30,0,32.3,0,35.2l0,0c0,2.9,2.3,5.2,5.2,5.2h332.3
		C346.1,40.3,354.2,44.1,359.8,50.7L359.8,50.7z"/>
	<path class="st5" d="M359.8,49c5.6,6.4,13.6,10,22,10h438.1c8,0,15.5-3.7,20.4-10c4.9-6.3,12.4-10,20.4-10H1195c0,0,0,0,0,0h5v-5
		v-5h-30H30H0v5v5h5l0,0h332.7C346.2,39,354.2,42.6,359.8,49z"/>
</g>
</svg>
